<svg xmlns="http://www.w3.org/2000/svg" width="700" height="350" viewBox="0 0 700 350" role="img" aria-labelledby="title desc">
  <title id="title">Social intranet collaboration</title>
  <desc id="desc">A social intranet includes posts, comments, team spaces, mentions, and video updates.</desc>
  <rect width="700" height="350" fill="#f4f7fb"/>
  <rect x="28" y="28" width="644" height="294" rx="8" fill="#ffffff" stroke="#d7e0ec"/>
  <text x="350" y="62" text-anchor="middle" font-family="Segoe UI, Arial, sans-serif" font-size="27" font-weight="700" fill="#12355b">Social Intranet Collaboration</text>
  <rect x="88" y="95" width="524" height="200" rx="10" fill="#edf2f7" stroke="#d7e0ec"/>
  <rect x="88" y="95" width="524" height="38" rx="10" fill="#12355b"/>
  <text x="116" y="120" font-family="Segoe UI, Arial, sans-serif" font-size="15" font-weight="700" fill="#ffffff">Company Feed</text>
  <g transform="translate(118 157)">
    <circle cx="24" cy="24" r="22" fill="#fef3c7" stroke="#f59e0b"/>
    <rect x="64" y="2" width="360" height="12" rx="6" fill="#12355b"/>
    <rect x="64" y="30" width="320" height="10" rx="5" fill="#526174"/>
    <rect x="64" y="56" width="120" height="26" rx="8" fill="#c2415d"/>
    <text x="124" y="74" text-anchor="middle" font-family="Segoe UI, Arial, sans-serif" font-size="13" font-weight="700" fill="#ffffff">@mention</text>
  </g>
  <g transform="translate(118 235)">
    <circle cx="24" cy="20" r="20" fill="#e0f2fe" stroke="#7dd3fc"/>
    <rect x="64" y="2" width="210" height="10" rx="5" fill="#12355b"/>
    <rect x="64" y="27" width="300" height="10" rx="5" fill="#526174"/>
    <rect x="395" y="-8" width="72" height="48" rx="8" fill="#ffffff" stroke="#9fb0c5"/>
    <path d="M421 5 L449 16 L421 28 Z" fill="#c2415d"/>
  </g>
</svg>
