<svg xmlns="http://www.w3.org/2000/svg" width="700" height="350" viewBox="0 0 700 350" role="img" aria-labelledby="title desc">
  <title id="title">Web server hardware and software</title>
  <desc id="desc">A server rack connected to web server software, storage, and browser clients.</desc>
  <rect width="700" height="350" fill="#f4f7fb"/>
  <rect x="28" y="28" width="644" height="294" rx="8" fill="#ffffff" stroke="#d7e0ec"/>
  <text x="350" y="62" text-anchor="middle" font-family="Segoe UI, Arial, sans-serif" font-size="26" font-weight="700" fill="#12355b">Web Server Hardware &amp; Software</text>
  <g transform="translate(58 95)">
    <rect x="0" y="0" width="160" height="190" rx="8" fill="#15263b"/>
    <rect x="18" y="22" width="124" height="30" rx="4" fill="#dbeafe"/>
    <rect x="18" y="68" width="124" height="30" rx="4" fill="#dbeafe"/>
    <rect x="18" y="114" width="124" height="30" rx="4" fill="#dbeafe"/>
    <circle cx="132" cy="37" r="5" fill="#16a34a"/>
    <circle cx="132" cy="83" r="5" fill="#f59e0b"/>
    <circle cx="132" cy="129" r="5" fill="#16a34a"/>
    <text x="80" y="172" text-anchor="middle" font-family="Segoe UI, Arial, sans-serif" font-size="15" font-weight="700" fill="#ffffff">Server Hardware</text>
  </g>
  <g transform="translate(284 103)">
    <rect x="0" y="0" width="180" height="132" rx="8" fill="#12355b"/>
    <rect x="0" y="0" width="180" height="28" rx="8" fill="#c2415d"/>
    <circle cx="18" cy="14" r="4" fill="#ffffff"/>
    <circle cx="33" cy="14" r="4" fill="#ffffff"/>
    <circle cx="48" cy="14" r="4" fill="#ffffff"/>
    <text x="18" y="57" font-family="Consolas, monospace" font-size="15" fill="#bfdbfe">GET /index.html</text>
    <text x="18" y="83" font-family="Consolas, monospace" font-size="15" fill="#fef3c7">Apache / Nginx</text>
    <text x="18" y="109" font-family="Consolas, monospace" font-size="15" fill="#dcfce7">200 OK</text>
    <text x="90" y="164" text-anchor="middle" font-family="Segoe UI, Arial, sans-serif" font-size="15" font-weight="700" fill="#12355b">Server Software</text>
  </g>
  <g transform="translate(520 108)">
    <rect x="0" y="0" width="105" height="74" rx="8" fill="#edf2f7" stroke="#9fb0c5"/>
    <rect x="15" y="16" width="75" height="8" rx="4" fill="#12355b"/>
    <rect x="15" y="34" width="55" height="8" rx="4" fill="#c2415d"/>
    <rect x="15" y="52" width="68" height="8" rx="4" fill="#526174"/>
    <rect x="20" y="108" width="65" height="54" rx="6" fill="#e0f2fe" stroke="#7dd3fc"/>
    <text x="52" y="96" text-anchor="middle" font-family="Segoe UI, Arial, sans-serif" font-size="14" font-weight="700" fill="#12355b">Browser</text>
    <text x="52" y="183" text-anchor="middle" font-family="Segoe UI, Arial, sans-serif" font-size="14" font-weight="700" fill="#12355b">Files</text>
  </g>
  <path d="M220 178 H276" stroke="#c2415d" stroke-width="5" stroke-linecap="round"/>
  <path d="M464 178 H518" stroke="#c2415d" stroke-width="5" stroke-linecap="round"/>
  <path d="M264 166 L282 178 L264 190" fill="none" stroke="#c2415d" stroke-width="5" stroke-linecap="round" stroke-linejoin="round"/>
  <path d="M506 166 L524 178 L506 190" fill="none" stroke="#c2415d" stroke-width="5" stroke-linecap="round" stroke-linejoin="round"/>
</svg>
