<svg xmlns="http://www.w3.org/2000/svg" width="700" height="350" viewBox="0 0 700 350" role="img" aria-labelledby="title desc">
  <title id="title">Web server security lock</title>
  <desc id="desc">A locked shield protecting a web server with TLS, firewall, patches, and logs.</desc>
  <rect width="700" height="350" fill="#f4f7fb"/>
  <rect x="28" y="28" width="644" height="294" rx="8" fill="#ffffff" stroke="#d7e0ec"/>
  <text x="350" y="62" text-anchor="middle" font-family="Segoe UI, Arial, sans-serif" font-size="27" font-weight="700" fill="#12355b">Web Server Security</text>
  <g transform="translate(264 89)">
    <path d="M86 0 L166 34 V98 C166 150 130 184 86 206 C42 184 6 150 6 98 V34 Z" fill="#12355b"/>
    <path d="M86 22 L142 46 V96 C142 132 118 158 86 176 C54 158 30 132 30 96 V46 Z" fill="#e0f2fe"/>
    <rect x="60" y="91" width="52" height="46" rx="7" fill="#c2415d"/>
    <path d="M70 91 V75 C70 53 102 53 102 75 V91" fill="none" stroke="#c2415d" stroke-width="10" stroke-linecap="round"/>
    <circle cx="86" cy="113" r="7" fill="#ffffff"/>
    <rect x="82" y="118" width="8" height="12" rx="4" fill="#ffffff"/>
  </g>
  <g font-family="Segoe UI, Arial, sans-serif" font-size="15" font-weight="700">
    <rect x="75" y="125" width="124" height="48" rx="8" fill="#edf2f7" stroke="#d7e0ec"/>
    <text x="137" y="155" text-anchor="middle" fill="#12355b">TLS / HTTPS</text>
    <rect x="78" y="214" width="118" height="48" rx="8" fill="#edf2f7" stroke="#d7e0ec"/>
    <text x="137" y="244" text-anchor="middle" fill="#12355b">Firewall</text>
    <rect x="502" y="125" width="124" height="48" rx="8" fill="#edf2f7" stroke="#d7e0ec"/>
    <text x="564" y="155" text-anchor="middle" fill="#12355b">Patching</text>
    <rect x="505" y="214" width="118" height="48" rx="8" fill="#edf2f7" stroke="#d7e0ec"/>
    <text x="564" y="244" text-anchor="middle" fill="#12355b">Logging</text>
  </g>
  <path d="M200 149 H258 M198 238 H258 M442 149 H500 M442 238 H502" stroke="#c2415d" stroke-width="4" stroke-linecap="round"/>
</svg>
